<svg id="Calques" xmlns="http://www.w3.org/2000/svg" viewBox="0 0 187.42 194.6"><defs><style>.cls-1,.cls-2,.cls-3,.cls-4{fill:#db0d15;}.cls-2{opacity:0.76;}.cls-3{opacity:0.53;}.cls-4{opacity:0.65;}.cls-5{fill:#fff;}.cls-6,.cls-7{fill:none;stroke:#fff;stroke-width:10px;}.cls-6{stroke-miterlimit:10;}.cls-7{stroke-linejoin:round;}</style></defs><title>Essai LOGO 3</title><polygon class="cls-1" points="0.1 34.39 95.48 0 187.42 37.68 94.77 88 0.1 34.39"/><polygon class="cls-2" points="94.77 88 92.29 194.6 0.1 137.94 0.1 34.39 94.77 88"/><polygon class="cls-3" points="94.77 88 187.42 37.68 183.77 143.17 92.29 194.6 94.77 88"/><polygon class="cls-4" points="0.1 137.94 94.77 88 183.77 143.17 92.29 194.6 0.1 137.94"/><polygon class="cls-5" points="176.14 33.6 186.71 37.93 180.37 41.4 176.14 33.6"/><path class="cls-5" d="M177.25,34.59l8.3,3.41-5,2.72-3.32-6.13M176,33l-.58.29,4.76,8.79,7.23-4,0-.44L176,33Z"/><polygon class="cls-5" points="1.13 138.12 9.72 138.12 9.72 143.41 1.13 138.12"/><path class="cls-5" d="M9.35,138.5v4.24l-6.9-4.24h6.9m.75-.75H.1v.19l10,6.14v-6.33Z"/><polyline class="cls-6" points="5.1 137.75 5.02 51.25 87.93 178.08 89.72 85.5 137.97 59.25 177.79 37.69"/><line class="cls-7" x1="140.43" y1="163" x2="141.6" y2="59.92"/><polygon class="cls-5" points="135.93 163.4 144.93 163.48 144.93 164.42 135.88 169.51 135.93 163.4"/><path class="cls-5" d="M136.43,163.9l8,.07v.16l-8,4.52,0-4.75m-1-1-.07,7.48,10.06-5.65V163l-10-.09Z"/></svg>